<svg xmlns="http://www.w3.org/2000/svg" viewBox="0 0 512 512" role="img" aria-label="Lester Labs icon">
  <defs>
    <linearGradient id="bg" x1="72" y1="40" x2="448" y2="472" gradientUnits="userSpaceOnUse">
      <stop offset="0" stop-color="#151029"/>
      <stop offset="0.48" stop-color="#090817"/>
      <stop offset="1" stop-color="#14102a"/>
    </linearGradient>
    <linearGradient id="mark" x1="152" y1="118" x2="376" y2="386" gradientUnits="userSpaceOnUse">
      <stop offset="0" stop-color="#8B74FF"/>
      <stop offset="0.52" stop-color="#5E6AD2"/>
      <stop offset="1" stop-color="#36D1DC"/>
    </linearGradient>
    <filter id="glow" x="-40%" y="-40%" width="180%" height="180%">
      <feGaussianBlur stdDeviation="18" result="blur"/>
      <feColorMatrix in="blur" type="matrix" values="0 0 0 0 0.42 0 0 0 0 0.31 0 0 0 0 1 0 0 0 0.62 0"/>
      <feMerge>
        <feMergeNode/>
        <feMergeNode in="SourceGraphic"/>
      </feMerge>
    </filter>
  </defs>
  <rect width="512" height="512" rx="112" fill="url(#bg)"/>
  <path d="M96 152h320M96 256h320M96 360h320M152 96v320M256 96v320M360 96v320" stroke="#ffffff" stroke-opacity="0.055" stroke-width="10"/>
  <circle cx="380" cy="132" r="54" fill="#36D1DC" opacity="0.16"/>
  <circle cx="144" cy="374" r="68" fill="#8B74FF" opacity="0.14"/>
  <path d="M178 128c0-13.255 10.745-24 24-24h46c13.255 0 24 10.745 24 24v198h118c13.255 0 24 10.745 24 24v34c0 13.255-10.745 24-24 24H202c-13.255 0-24-10.745-24-24V128Z" fill="url(#mark)" filter="url(#glow)"/>
  <path d="M218 144h20v222h136v18H218V144Z" fill="#ffffff" fill-opacity="0.34"/>
  <path d="M316 120h56c10 0 18 8 18 18v56" fill="none" stroke="#36D1DC" stroke-width="18" stroke-linecap="round"/>
</svg>
